<svg xmlns="http://www.w3.org/2000/svg" viewBox="0 0 32.626 31.818"><defs><radialGradient id="a" cx=".5" cy=".5" r=".5"><stop offset="0" stop-color="#AEF3C8"/><stop offset=".365" stop-color="#ACF2C7"/><stop offset=".527" stop-color="#A5F0C6"/><stop offset=".649" stop-color="#98EBC3"/><stop offset=".751" stop-color="#86E4BE"/><stop offset=".841" stop-color="#6FDCB8"/><stop offset=".92" stop-color="#52D2B1"/><stop offset=".993" stop-color="#31C5A9"/><stop offset="1" stop-color="#2DC4A8"/></radialGradient></defs><path fill="url(#a)" fill-rule="evenodd" d="M32.626 15.91c0 8.786-7.305 15.908-16.315 15.908C7.303 31.818 0 24.696 0 15.91 0 7.123 7.303 0 16.311 0c9.01 0 16.315 7.123 16.315 15.91"/><path fill="#05071A" d="M29.371 13.993c0-.395-.076-.845-.354-1.156a2 2 0 0 0-.279-.258l-.002-.002-.004-.004c-.044-.038-.091-.068-.141-.1-.305-.199-.651-.286-1.071-.286h-1.275c-.707 0-1.095-.448-1.095-1.249q-.002-.685-.019-1.371c-.013-.555.095-1.21-.374-1.624-.301-.268-.711-.374-1.097-.472-.724-.176-1.58-.251-2.268.105-.601.318-1.021 1.025-1.763 1.04-.83.016-2.48.031-2.48.031H10.16c-.439 0-.895-.029-1.317.098-.961.292-1.104 1.348-1.104 2.192 0 .802-.414 1.254-1.162 1.254H5.22c-.416 0-.834.066-1.184.282-.052.032-.1.061-.143.1-.005 0-.008.006-.008.006a2 2 0 0 0-.277.258c-.279.311-.356.761-.358 1.156-.004.279-.004.563-.004.841q-.007.843-.006 1.685v.097c0 .428 0 .854.004 1.288q0 .638.006 1.273c0 .655.346 1.315.979 1.589.177.079.354.122.535.147l.026.002q.073.012.139.016.146.02.291.019h1.224c.665.025 1.031.477 1.031 1.25 0 .466-.022.953.194 1.378.136.262.315.502.554.687.274.208.565.229.899.229h13.979c.687 0 1.244-.241 1.574-.912.233-.477.173-1.042.217-1.553.032-.369.169-.751.523-.937.181-.097.426-.142.633-.142h1.355q.149 0 .292-.019.072-.004.142-.015c.189-.026.378-.067.559-.15.605-.264.947-.877.973-1.508l.002-.085c.008-.848.014-1.704.014-2.553v-.098q-.001-1.265-.014-2.529m-3.753 1.322v3.879c0 1.106-.919 2.003-2.056 2.003h-14.5c-1.134 0-2.056-.897-2.056-2.003v-5.315c0-1.106.922-2.002 2.056-2.002h14.5c1.137 0 2.056.896 2.056 2.002z"/><path fill="#05071A" d="M18.778 16.521c.002-1.022.864-1.852 1.914-1.849 1.037.005 1.907.86 1.897 1.872-.006 1.001-.902 1.866-1.922 1.856-1.039-.013-1.893-.861-1.889-1.879m-8.743 0c.002-1.022.862-1.852 1.914-1.849 1.037.005 1.907.86 1.899 1.872-.006 1.001-.904 1.866-1.923 1.856-1.041-.013-1.894-.861-1.89-1.879"/></svg>