<svg xmlns="http://www.w3.org/2000/svg" viewBox="0 0 32.626 31.818"><defs><radialGradient id="apg" cx="0.5" cy="0.5" r="0.5"><stop offset="0" stop-color="#AEF3C8"></stop><stop offset="0.3653" stop-color="#ACF2C7"></stop><stop offset="0.5275" stop-color="#A5F0C6"></stop><stop offset="0.6494" stop-color="#98EBC3"></stop><stop offset="0.7514" stop-color="#86E4BE"></stop><stop offset="0.8407" stop-color="#6FDCB8"></stop><stop offset="0.9204" stop-color="#52D2B1"></stop><stop offset="0.9928" stop-color="#31C5A9"></stop><stop offset="1" stop-color="#2DC4A8"></stop></radialGradient></defs><path d="M 32.626 15.91 C 32.626 24.696 25.321 31.818 16.311 31.818 C 7.303 31.818 0 24.696 0 15.91 C 0 7.123 7.303 0 16.311 0 C 25.321 0 32.626 7.123 32.626 15.91 Z" fill="url(#apg)" fill-rule="evenodd"></path><g transform="translate(3.24,7.324)"><path d="M 26.131 6.669 C 26.131 6.274 26.055 5.824 25.777 5.513 C 25.687 5.413 25.594 5.326 25.498 5.255 L 25.496 5.253 L 25.492 5.249 C 25.448 5.211 25.401 5.181 25.351 5.149 C 25.046 4.95 24.7 4.863 24.28 4.863 L 23.005 4.863 C 22.298 4.863 21.91 4.415 21.91 3.614 C 21.91 3.157 21.901 2.701 21.891 2.243 C 21.878 1.688 21.986 1.033 21.517 0.619 C 21.216 0.351 20.806 0.245 20.42 0.147 C 19.696 -0.029 18.84 -0.104 18.152 0.252 C 17.551 0.57 17.131 1.277 16.389 1.292 C 15.559 1.308 13.909 1.323 13.909 1.323 L 6.92 1.323 C 6.481 1.323 6.025 1.294 5.603 1.421 C 4.642 1.713 4.499 2.769 4.499 3.613 C 4.499 4.415 4.085 4.867 3.337 4.867 L 1.98 4.867 C 1.564 4.867 1.146 4.933 0.796 5.149 C 0.744 5.181 0.696 5.21 0.653 5.249 C 0.648 5.249 0.645 5.255 0.645 5.255 C 0.551 5.326 0.458 5.413 0.368 5.513 C 0.089 5.824 0.012 6.274 0.01 6.669 C 0.006 6.948 0.006 7.232 0.006 7.51 C 0 8.072 0 8.634 0 9.195 L 0 9.292 C 0 9.72 0 10.146 0.004 10.58 C 0.004 11.005 0.006 11.43 0.01 11.853 C 0.01 12.508 0.356 13.168 0.989 13.442 C 1.166 13.521 1.343 13.564 1.524 13.589 C 1.53 13.589 1.54 13.591 1.55 13.591 C 1.598 13.599 1.646 13.605 1.689 13.607 C 1.785 13.622 1.884 13.626 1.98 13.626 L 3.204 13.626 C 3.869 13.651 4.235 14.103 4.235 14.876 C 4.235 15.342 4.213 15.829 4.429 16.254 C 4.565 16.516 4.744 16.756 4.983 16.941 C 5.257 17.149 5.548 17.17 5.882 17.17 L 6.28 17.17 C 6.863 17.17 7.882 17.17 7.882 17.17 C 7.892 17.17 7.892 17.17 7.904 17.17 C 7.904 17.17 17.756 17.17 17.768 17.17 L 19.861 17.17 C 20.548 17.17 21.105 16.929 21.435 16.258 C 21.668 15.781 21.608 15.216 21.652 14.705 C 21.684 14.336 21.821 13.954 22.175 13.768 C 22.356 13.671 22.601 13.626 22.808 13.626 L 22.941 13.626 L 24.163 13.626 C 24.262 13.626 24.36 13.619 24.455 13.607 C 24.503 13.605 24.551 13.599 24.597 13.592 C 24.786 13.566 24.975 13.525 25.156 13.442 C 25.761 13.178 26.103 12.565 26.129 11.934 C 26.129 11.903 26.131 11.876 26.131 11.849 C 26.139 11.001 26.145 10.145 26.145 9.296 L 26.145 9.198 C 26.145 8.354 26.139 7.512 26.131 6.669 Z M 22.378 7.991 L 22.378 10.432 L 22.378 11.87 C 22.378 12.976 21.459 13.873 20.322 13.873 L 5.822 13.873 C 4.688 13.873 3.766 12.976 3.766 11.87 L 3.766 10.432 L 3.766 7.991 L 3.766 6.555 C 3.766 5.449 4.688 4.553 5.822 4.553 L 20.322 4.553 C 21.459 4.553 22.378 5.449 22.378 6.555 L 22.378 7.991 Z" fill="#05071A"></path></g><g transform="translate(18.778,14.672)"><path d="M 0 1.849 C 0.002 0.827 0.864 -0.003 1.914 0 C 2.951 0.005 3.821 0.86 3.811 1.872 C 3.805 2.873 2.909 3.738 1.889 3.728 C 0.85 3.715 -0.004 2.867 0 1.849 Z" fill="#05071A"></path></g><g transform="translate(10.035,14.672)"><path d="M 0 1.849 C 0.002 0.827 0.862 -0.003 1.914 0 C 2.951 0.005 3.821 0.86 3.813 1.872 C 3.807 2.873 2.909 3.738 1.89 3.728 C 0.849 3.715 -0.004 2.867 0 1.849 Z" fill="#05071A"></path></g></svg>