<svg xmlns="http://www.w3.org/2000/svg" width="1917" height="580" fill="none" viewBox="0 0 1917 580"><rect width="500" height="500" x="40" y="40" fill="url(#a)" rx="100"/><g fill="#fff" fill-rule="evenodd" clip-path="url(#b)" clip-rule="evenodd"><path d="M399.317 288.907c0 60.978-49.432 110.41-110.41 110.41s-110.41-49.432-110.41-110.41 49.432-110.41 110.41-110.41 110.41 49.432 110.41 110.41m-110.41 84.174c46.488 0 84.174-37.686 84.174-84.174s-37.686-84.174-84.174-84.174-84.174 37.686-84.174 84.174 37.686 84.174 84.174 84.174"/><path d="M253.252 301.182a1.065 1.065 0 0 1 1.348.619c5.411 13.673 18.749 23.314 34.307 23.314s28.896-9.641 34.306-23.314a1.066 1.066 0 0 1 1.349-.619l22.702 8.244c.541.197.82.796.615 1.333-9.062 23.717-32.03 40.592-58.972 40.592s-49.91-16.875-58.972-40.592a1.03 1.03 0 0 1 .615-1.333z"/><path d="M410.248 401.503v-42.685c0-.575.467-1.042 1.042-1.042h24.153c.575 0 1.041.467 1.041 1.042v42.685c0 19.32-15.661 34.981-34.981 34.981h-42.685a1.04 1.04 0 0 1-1.042-1.041V411.29c0-.575.467-1.042 1.042-1.042h42.685a8.745 8.745 0 0 0 8.745-8.745"/><path d="M169.752 178.497v42.685c0 .575-.467 1.042-1.042 1.042h-24.153a1.04 1.04 0 0 1-1.041-1.042v-42.685c0-19.32 15.661-34.981 34.981-34.981h42.685c.575 0 1.042.466 1.042 1.041v24.153c0 .575-.467 1.042-1.042 1.042h-42.685a8.745 8.745 0 0 0-8.745 8.745"/></g><path fill="#282828" d="m732.6 413-56-97.3h-30.45V413h-39.9V169.75h84q28 0 47.25 9.8 19.6 9.8 29.05 26.25 9.8 16.45 9.8 36.75 0 23.8-14 43.4Q748.7 305.2 720 312.2L780.2 413zm-86.45-129.15h44.1q22.4 0 33.6-11.2 11.55-11.2 11.55-30.1t-11.2-29.4Q713 202.3 690.25 202.3h-44.1zm350.993 28q0 10.85-1.4 19.6h-147.35q1.75 23.1 17.15 37.1t37.8 14q32.2 0 45.5-26.95h43.05q-8.75 26.6-31.85 43.75-22.75 16.8-56.7 16.8-27.65 0-49.7-12.25-21.7-12.6-34.3-35-12.25-22.75-12.25-52.5t11.9-52.15q12.25-22.75 33.95-35 22.05-12.25 50.4-12.25 27.3 0 48.65 11.9t33.25 33.6q11.9 21.35 11.9 49.35m-41.65-12.6q-.351-22.05-15.75-35.35t-38.15-13.3q-20.65 0-35.35 13.3-14.7 12.95-17.5 35.35zm60.617 16.45c0-19.367 3.96-36.517 11.9-51.45 8.16-14.933 19.13-26.483 32.9-34.65q21-12.6 46.2-12.6c15.16 0 28.35 3.033 39.55 9.1q17.145 8.75 27.3 22.05v-28h40.25V413h-40.25v-28.7c-6.77 9.1-15.99 16.683-27.65 22.75q-17.505 9.1-39.9 9.1c-16.57 0-31.74-4.2-45.5-12.6-13.77-8.633-24.74-20.533-32.9-35.7-7.94-15.4-11.9-32.783-11.9-52.15m157.85.7q0-19.95-8.4-34.65c-5.37-9.8-12.49-17.267-21.35-22.4-8.87-5.133-18.44-7.7-28.7-7.7-10.27 0-19.84 2.567-28.7 7.7-8.87 4.9-16.1 12.25-21.7 22.05-5.37 9.567-8.05 21-8.05 34.3s2.68 24.967 8.05 35c5.6 10.033 12.83 17.733 21.7 23.1 9.1 5.133 18.66 7.7 28.7 7.7 10.26 0 19.83-2.567 28.7-7.7 8.86-5.133 15.98-12.6 21.35-22.4q8.4-15.05 8.4-35m72.36-.7c0-19.367 3.96-36.517 11.9-51.45 8.16-14.933 19.13-26.483 32.9-34.65 14-8.4 29.51-12.6 46.55-12.6 12.6 0 24.96 2.8 37.1 8.4q18.54 8.05 29.4 21.7V154h40.25v259h-40.25v-29.05q-9.81 14-27.3 23.1c-11.44 6.067-24.62 9.1-39.55 9.1q-25.2 0-46.2-12.6c-13.77-8.633-24.74-20.533-32.9-35.7-7.94-15.4-11.9-32.783-11.9-52.15m157.85.7q0-19.95-8.4-34.65c-5.37-9.8-12.49-17.267-21.35-22.4-8.87-5.133-18.44-7.7-28.7-7.7-10.27 0-19.84 2.567-28.7 7.7-8.87 4.9-16.1 12.25-21.7 22.05-5.37 9.567-8.05 21-8.05 34.3s2.68 24.967 8.05 35c5.6 10.033 12.83 17.733 21.7 23.1 9.1 5.133 18.66 7.7 28.7 7.7 10.26 0 19.83-2.567 28.7-7.7 8.86-5.133 15.98-12.6 21.35-22.4q8.4-15.05 8.4-35m316.22 46.9h-101.85l-17.5 49.7h-41.65l87.15-243.6h46.2l87.15 243.6h-42zm-11.2-32.55-39.55-113.05-39.9 113.05zm141.49-161V413h-39.9V169.75z"/><defs><linearGradient id="a" x1="166.582" x2="464.051" y1="427.658" y2="163.418" gradientUnits="userSpaceOnUse"><stop stop-color="#4361EE"/><stop offset="1" stop-color="#7B61FF"/></linearGradient><clipPath id="b"><path fill="#fff" d="M143.516 143.516h292.969v292.969H143.516z"/></clipPath></defs></svg>